<mxfile host="app.diagrams.net" modified="2023-02-15T00:21:25.994Z" agent="5.0 (Windows NT 10.0; Win64; x64) AppleWebKit/537.36 (KHTML, like Gecko) Chrome/109.0.0.0 Safari/537.36 OPR/95.0.0.0" etag="mwJpEBRcJE3UrpdQ5VYi" version="20.8.20" type="github">
  <diagram id="R2lEEEUBdFMjLlhIrx00" name="Page-1">
    <mxGraphModel dx="840" dy="446" grid="1" gridSize="10" guides="1" tooltips="1" connect="1" arrows="1" fold="1" page="1" pageScale="1" pageWidth="850" pageHeight="1100" math="0" shadow="0" extFonts="Permanent Marker^https://fonts.googleapis.com/css?family=Permanent+Marker">
      <root>
        <mxCell id="0" />
        <mxCell id="1" parent="0" />
        <mxCell id="DTD4BTRLAoghBiSOBNwU-1" value="Bebê" style="whiteSpace=wrap;html=1;align=center;" vertex="1" parent="1">
          <mxGeometry x="440" y="150" width="100" height="40" as="geometry" />
        </mxCell>
        <mxCell id="DTD4BTRLAoghBiSOBNwU-8" value="" style="endArrow=none;html=1;rounded=0;exitX=1;exitY=0;exitDx=0;exitDy=0;" edge="1" parent="1" source="DTD4BTRLAoghBiSOBNwU-1" target="DTD4BTRLAoghBiSOBNwU-9">
          <mxGeometry relative="1" as="geometry">
            <mxPoint x="340" y="230" as="sourcePoint" />
            <mxPoint x="590" y="120" as="targetPoint" />
          </mxGeometry>
        </mxCell>
        <mxCell id="DTD4BTRLAoghBiSOBNwU-9" value="Nome" style="ellipse;whiteSpace=wrap;html=1;align=center;" vertex="1" parent="1">
          <mxGeometry x="570" y="115" width="70" height="30" as="geometry" />
        </mxCell>
        <mxCell id="DTD4BTRLAoghBiSOBNwU-10" value="" style="endArrow=none;html=1;rounded=0;exitX=1;exitY=0.25;exitDx=0;exitDy=0;entryX=0;entryY=0.5;entryDx=0;entryDy=0;" edge="1" parent="1" source="DTD4BTRLAoghBiSOBNwU-1" target="DTD4BTRLAoghBiSOBNwU-11">
          <mxGeometry relative="1" as="geometry">
            <mxPoint x="550" y="160" as="sourcePoint" />
            <mxPoint x="566" y="148" as="targetPoint" />
          </mxGeometry>
        </mxCell>
        <mxCell id="DTD4BTRLAoghBiSOBNwU-11" value="data_nascimento" style="ellipse;whiteSpace=wrap;html=1;align=center;" vertex="1" parent="1">
          <mxGeometry x="600" y="145" width="100" height="40" as="geometry" />
        </mxCell>
        <mxCell id="DTD4BTRLAoghBiSOBNwU-12" value="Nome" style="ellipse;whiteSpace=wrap;html=1;align=center;fillColor=#000000;" vertex="1" parent="1">
          <mxGeometry x="530" y="80" width="70" height="30" as="geometry" />
        </mxCell>
        <mxCell id="DTD4BTRLAoghBiSOBNwU-14" value="" style="endArrow=none;html=1;rounded=0;exitX=0.75;exitY=0;exitDx=0;exitDy=0;entryX=0;entryY=1;entryDx=0;entryDy=0;" edge="1" parent="1" source="DTD4BTRLAoghBiSOBNwU-1" target="DTD4BTRLAoghBiSOBNwU-12">
          <mxGeometry relative="1" as="geometry">
            <mxPoint x="550" y="160" as="sourcePoint" />
            <mxPoint x="618" y="135" as="targetPoint" />
          </mxGeometry>
        </mxCell>
        <mxCell id="DTD4BTRLAoghBiSOBNwU-15" value="id" style="text;strokeColor=none;align=center;fillColor=none;html=1;verticalAlign=middle;whiteSpace=wrap;rounded=0;" vertex="1" parent="1">
          <mxGeometry x="580" y="80" width="60" height="30" as="geometry" />
        </mxCell>
        <mxCell id="DTD4BTRLAoghBiSOBNwU-17" value="peso_nascimento" style="ellipse;whiteSpace=wrap;html=1;align=center;" vertex="1" parent="1">
          <mxGeometry x="600" y="195" width="100" height="40" as="geometry" />
        </mxCell>
        <mxCell id="DTD4BTRLAoghBiSOBNwU-18" value="" style="endArrow=none;html=1;rounded=0;exitX=1;exitY=0.5;exitDx=0;exitDy=0;entryX=0;entryY=0;entryDx=0;entryDy=0;" edge="1" parent="1" source="DTD4BTRLAoghBiSOBNwU-1" target="DTD4BTRLAoghBiSOBNwU-17">
          <mxGeometry relative="1" as="geometry">
            <mxPoint x="550" y="170" as="sourcePoint" />
            <mxPoint x="610" y="175" as="targetPoint" />
          </mxGeometry>
        </mxCell>
        <mxCell id="DTD4BTRLAoghBiSOBNwU-19" value="altura" style="ellipse;whiteSpace=wrap;html=1;align=center;" vertex="1" parent="1">
          <mxGeometry x="590" y="250" width="100" height="40" as="geometry" />
        </mxCell>
        <mxCell id="DTD4BTRLAoghBiSOBNwU-22" value="" style="endArrow=none;html=1;rounded=0;exitX=1;exitY=1;exitDx=0;exitDy=0;entryX=0;entryY=0;entryDx=0;entryDy=0;" edge="1" parent="1" source="DTD4BTRLAoghBiSOBNwU-1" target="DTD4BTRLAoghBiSOBNwU-19">
          <mxGeometry relative="1" as="geometry">
            <mxPoint x="550" y="180" as="sourcePoint" />
            <mxPoint x="625" y="211" as="targetPoint" />
          </mxGeometry>
        </mxCell>
        <mxCell id="DTD4BTRLAoghBiSOBNwU-23" value="" style="endArrow=none;html=1;rounded=0;exitX=0.75;exitY=1;exitDx=0;exitDy=0;entryX=0.69;entryY=-0.05;entryDx=0;entryDy=0;entryPerimeter=0;startArrow=none;" edge="1" parent="1" source="DTD4BTRLAoghBiSOBNwU-57" target="DTD4BTRLAoghBiSOBNwU-26">
          <mxGeometry relative="1" as="geometry">
            <mxPoint x="550" y="200" as="sourcePoint" />
            <mxPoint x="594.6446609406726" y="305.85786437626905" as="targetPoint" />
          </mxGeometry>
        </mxCell>
        <mxCell id="DTD4BTRLAoghBiSOBNwU-24" value="" style="endArrow=none;html=1;rounded=0;exitX=0.5;exitY=1;exitDx=0;exitDy=0;entryX=0.5;entryY=0;entryDx=0;entryDy=0;startArrow=none;" edge="1" parent="1" source="DTD4BTRLAoghBiSOBNwU-60" target="DTD4BTRLAoghBiSOBNwU-25">
          <mxGeometry relative="1" as="geometry">
            <mxPoint x="525" y="200" as="sourcePoint" />
            <mxPoint x="439.64466094067257" y="305.85786437626905" as="targetPoint" />
          </mxGeometry>
        </mxCell>
        <mxCell id="DTD4BTRLAoghBiSOBNwU-25" value="Médico" style="whiteSpace=wrap;html=1;align=center;" vertex="1" parent="1">
          <mxGeometry x="370" y="320" width="100" height="40" as="geometry" />
        </mxCell>
        <mxCell id="DTD4BTRLAoghBiSOBNwU-26" value="Mãe" style="whiteSpace=wrap;html=1;align=center;" vertex="1" parent="1">
          <mxGeometry x="490" y="400" width="100" height="40" as="geometry" />
        </mxCell>
        <mxCell id="DTD4BTRLAoghBiSOBNwU-27" value="nome" style="ellipse;whiteSpace=wrap;html=1;align=center;" vertex="1" parent="1">
          <mxGeometry x="240" y="250" width="100" height="40" as="geometry" />
        </mxCell>
        <mxCell id="DTD4BTRLAoghBiSOBNwU-28" value="CRM" style="ellipse;whiteSpace=wrap;html=1;align=center;" vertex="1" parent="1">
          <mxGeometry x="250" y="300" width="100" height="40" as="geometry" />
        </mxCell>
        <mxCell id="DTD4BTRLAoghBiSOBNwU-29" value="Telefone" style="ellipse;whiteSpace=wrap;html=1;align=center;" vertex="1" parent="1">
          <mxGeometry x="260" y="350" width="100" height="40" as="geometry" />
        </mxCell>
        <mxCell id="DTD4BTRLAoghBiSOBNwU-30" value="Especialidade" style="ellipse;whiteSpace=wrap;html=1;align=center;" vertex="1" parent="1">
          <mxGeometry x="260" y="400" width="100" height="40" as="geometry" />
        </mxCell>
        <mxCell id="DTD4BTRLAoghBiSOBNwU-31" value="Nome" style="ellipse;whiteSpace=wrap;html=1;align=center;fillColor=#000000;" vertex="1" parent="1">
          <mxGeometry x="310" y="210" width="70" height="30" as="geometry" />
        </mxCell>
        <mxCell id="DTD4BTRLAoghBiSOBNwU-32" value="id" style="text;strokeColor=none;align=center;fillColor=none;html=1;verticalAlign=middle;whiteSpace=wrap;rounded=0;" vertex="1" parent="1">
          <mxGeometry x="360" y="210" width="60" height="30" as="geometry" />
        </mxCell>
        <mxCell id="DTD4BTRLAoghBiSOBNwU-38" value="data nascimento" style="ellipse;whiteSpace=wrap;html=1;align=center;" vertex="1" parent="1">
          <mxGeometry x="610" y="510" width="100" height="40" as="geometry" />
        </mxCell>
        <mxCell id="DTD4BTRLAoghBiSOBNwU-39" value="nome" style="ellipse;whiteSpace=wrap;html=1;align=center;" vertex="1" parent="1">
          <mxGeometry x="680" y="330" width="100" height="40" as="geometry" />
        </mxCell>
        <mxCell id="DTD4BTRLAoghBiSOBNwU-40" value="endereco" style="ellipse;whiteSpace=wrap;html=1;align=center;" vertex="1" parent="1">
          <mxGeometry x="680" y="390" width="100" height="40" as="geometry" />
        </mxCell>
        <mxCell id="DTD4BTRLAoghBiSOBNwU-41" value="telefone" style="ellipse;whiteSpace=wrap;html=1;align=center;" vertex="1" parent="1">
          <mxGeometry x="670" y="455" width="100" height="40" as="geometry" />
        </mxCell>
        <mxCell id="DTD4BTRLAoghBiSOBNwU-43" value="id" style="text;strokeColor=none;align=center;fillColor=none;html=1;verticalAlign=middle;whiteSpace=wrap;rounded=0;" vertex="1" parent="1">
          <mxGeometry x="215" y="460" width="60" height="30" as="geometry" />
        </mxCell>
        <mxCell id="DTD4BTRLAoghBiSOBNwU-44" value="" style="endArrow=none;html=1;rounded=0;fontColor=#FFFFFF;exitX=0.83;exitY=0.025;exitDx=0;exitDy=0;exitPerimeter=0;entryX=0;entryY=1;entryDx=0;entryDy=0;" edge="1" parent="1" source="DTD4BTRLAoghBiSOBNwU-26" target="DTD4BTRLAoghBiSOBNwU-50">
          <mxGeometry relative="1" as="geometry">
            <mxPoint x="340" y="530" as="sourcePoint" />
            <mxPoint x="610" y="350" as="targetPoint" />
          </mxGeometry>
        </mxCell>
        <mxCell id="DTD4BTRLAoghBiSOBNwU-45" value="" style="endArrow=none;html=1;rounded=0;fontColor=#FFFFFF;exitX=1;exitY=0;exitDx=0;exitDy=0;entryX=0;entryY=0.5;entryDx=0;entryDy=0;" edge="1" parent="1" source="DTD4BTRLAoghBiSOBNwU-26" target="DTD4BTRLAoghBiSOBNwU-39">
          <mxGeometry relative="1" as="geometry">
            <mxPoint x="160" y="590" as="sourcePoint" />
            <mxPoint x="196" y="499" as="targetPoint" />
          </mxGeometry>
        </mxCell>
        <mxCell id="DTD4BTRLAoghBiSOBNwU-46" value="" style="endArrow=none;html=1;rounded=0;fontColor=#FFFFFF;exitX=1;exitY=0.25;exitDx=0;exitDy=0;entryX=0;entryY=0.5;entryDx=0;entryDy=0;" edge="1" parent="1" source="DTD4BTRLAoghBiSOBNwU-26" target="DTD4BTRLAoghBiSOBNwU-40">
          <mxGeometry relative="1" as="geometry">
            <mxPoint x="210" y="590" as="sourcePoint" />
            <mxPoint x="270" y="530" as="targetPoint" />
          </mxGeometry>
        </mxCell>
        <mxCell id="DTD4BTRLAoghBiSOBNwU-47" value="" style="endArrow=none;html=1;rounded=0;fontColor=#FFFFFF;exitX=1;exitY=0.75;exitDx=0;exitDy=0;entryX=0;entryY=0;entryDx=0;entryDy=0;" edge="1" parent="1" source="DTD4BTRLAoghBiSOBNwU-26" target="DTD4BTRLAoghBiSOBNwU-41">
          <mxGeometry relative="1" as="geometry">
            <mxPoint x="210" y="600" as="sourcePoint" />
            <mxPoint x="270" y="590" as="targetPoint" />
          </mxGeometry>
        </mxCell>
        <mxCell id="DTD4BTRLAoghBiSOBNwU-49" value="" style="endArrow=none;html=1;rounded=0;fontColor=#FFFFFF;exitX=0.75;exitY=1;exitDx=0;exitDy=0;entryX=0.28;entryY=-0.05;entryDx=0;entryDy=0;entryPerimeter=0;" edge="1" parent="1" source="DTD4BTRLAoghBiSOBNwU-26" target="DTD4BTRLAoghBiSOBNwU-38">
          <mxGeometry relative="1" as="geometry">
            <mxPoint x="600" y="420" as="sourcePoint" />
            <mxPoint x="690" y="420" as="targetPoint" />
          </mxGeometry>
        </mxCell>
        <mxCell id="DTD4BTRLAoghBiSOBNwU-50" value="Nome" style="ellipse;whiteSpace=wrap;html=1;align=center;fillColor=#000000;" vertex="1" parent="1">
          <mxGeometry x="610" y="310" width="70" height="30" as="geometry" />
        </mxCell>
        <mxCell id="DTD4BTRLAoghBiSOBNwU-51" value="" style="endArrow=none;html=1;rounded=0;fontColor=#FFFFFF;exitX=0;exitY=0.5;exitDx=0;exitDy=0;entryX=1;entryY=0.5;entryDx=0;entryDy=0;" edge="1" parent="1" source="DTD4BTRLAoghBiSOBNwU-25" target="DTD4BTRLAoghBiSOBNwU-28">
          <mxGeometry relative="1" as="geometry">
            <mxPoint x="450" y="330" as="sourcePoint" />
            <mxPoint x="610" y="330" as="targetPoint" />
          </mxGeometry>
        </mxCell>
        <mxCell id="DTD4BTRLAoghBiSOBNwU-52" value="" style="endArrow=none;html=1;rounded=0;fontColor=#FFFFFF;exitX=0.25;exitY=0;exitDx=0;exitDy=0;entryX=0.94;entryY=0.75;entryDx=0;entryDy=0;entryPerimeter=0;" edge="1" parent="1" source="DTD4BTRLAoghBiSOBNwU-25" target="DTD4BTRLAoghBiSOBNwU-27">
          <mxGeometry relative="1" as="geometry">
            <mxPoint x="380" y="350" as="sourcePoint" />
            <mxPoint x="360" y="330" as="targetPoint" />
          </mxGeometry>
        </mxCell>
        <mxCell id="DTD4BTRLAoghBiSOBNwU-54" value="" style="endArrow=none;html=1;rounded=0;fontColor=#FFFFFF;exitX=0.5;exitY=0;exitDx=0;exitDy=0;entryX=0;entryY=1;entryDx=0;entryDy=0;" edge="1" parent="1" source="DTD4BTRLAoghBiSOBNwU-25" target="DTD4BTRLAoghBiSOBNwU-32">
          <mxGeometry relative="1" as="geometry">
            <mxPoint x="405" y="330" as="sourcePoint" />
            <mxPoint x="344" y="290" as="targetPoint" />
          </mxGeometry>
        </mxCell>
        <mxCell id="DTD4BTRLAoghBiSOBNwU-55" value="" style="endArrow=none;html=1;rounded=0;fontColor=#FFFFFF;exitX=0.25;exitY=1;exitDx=0;exitDy=0;entryX=0.99;entryY=0.35;entryDx=0;entryDy=0;entryPerimeter=0;" edge="1" parent="1" source="DTD4BTRLAoghBiSOBNwU-25" target="DTD4BTRLAoghBiSOBNwU-29">
          <mxGeometry relative="1" as="geometry">
            <mxPoint x="380" y="350" as="sourcePoint" />
            <mxPoint x="360" y="330" as="targetPoint" />
          </mxGeometry>
        </mxCell>
        <mxCell id="DTD4BTRLAoghBiSOBNwU-56" value="" style="endArrow=none;html=1;rounded=0;fontColor=#FFFFFF;exitX=0.41;exitY=1.025;exitDx=0;exitDy=0;entryX=1;entryY=0.5;entryDx=0;entryDy=0;exitPerimeter=0;" edge="1" parent="1" source="DTD4BTRLAoghBiSOBNwU-25" target="DTD4BTRLAoghBiSOBNwU-30">
          <mxGeometry relative="1" as="geometry">
            <mxPoint x="405" y="370" as="sourcePoint" />
            <mxPoint x="369" y="374" as="targetPoint" />
          </mxGeometry>
        </mxCell>
        <mxCell id="DTD4BTRLAoghBiSOBNwU-58" value="" style="endArrow=none;html=1;rounded=0;exitX=0.75;exitY=1;exitDx=0;exitDy=0;entryX=0.5;entryY=0;entryDx=0;entryDy=0;" edge="1" parent="1" source="DTD4BTRLAoghBiSOBNwU-1" target="DTD4BTRLAoghBiSOBNwU-57">
          <mxGeometry relative="1" as="geometry">
            <mxPoint x="515" y="190" as="sourcePoint" />
            <mxPoint x="559" y="398" as="targetPoint" />
          </mxGeometry>
        </mxCell>
        <mxCell id="DTD4BTRLAoghBiSOBNwU-57" value="Nascer" style="shape=rhombus;perimeter=rhombusPerimeter;whiteSpace=wrap;html=1;align=center;strokeColor=#000000;fontColor=#000000;fillColor=#FFFFFF;" vertex="1" parent="1">
          <mxGeometry x="480" y="290" width="120" height="60" as="geometry" />
        </mxCell>
        <mxCell id="DTD4BTRLAoghBiSOBNwU-59" value="id" style="text;strokeColor=none;align=center;fillColor=none;html=1;verticalAlign=middle;whiteSpace=wrap;rounded=0;" vertex="1" parent="1">
          <mxGeometry x="660" y="305" width="60" height="30" as="geometry" />
        </mxCell>
        <mxCell id="DTD4BTRLAoghBiSOBNwU-61" value="" style="endArrow=none;html=1;rounded=0;exitX=0.5;exitY=1;exitDx=0;exitDy=0;entryX=0.5;entryY=0;entryDx=0;entryDy=0;" edge="1" parent="1" source="DTD4BTRLAoghBiSOBNwU-1" target="DTD4BTRLAoghBiSOBNwU-60">
          <mxGeometry relative="1" as="geometry">
            <mxPoint x="490" y="190" as="sourcePoint" />
            <mxPoint x="420" y="320" as="targetPoint" />
          </mxGeometry>
        </mxCell>
        <mxCell id="DTD4BTRLAoghBiSOBNwU-60" value="Nascer" style="shape=rhombus;perimeter=rhombusPerimeter;whiteSpace=wrap;html=1;align=center;strokeColor=#000000;fontColor=#000000;fillColor=#FFFFFF;" vertex="1" parent="1">
          <mxGeometry x="400" y="220" width="120" height="60" as="geometry" />
        </mxCell>
        <mxCell id="DTD4BTRLAoghBiSOBNwU-62" value="1,1" style="text;strokeColor=none;align=center;fillColor=none;html=1;verticalAlign=middle;whiteSpace=wrap;rounded=0;fontColor=#000000;" vertex="1" parent="1">
          <mxGeometry x="520" y="370" width="60" height="30" as="geometry" />
        </mxCell>
        <mxCell id="DTD4BTRLAoghBiSOBNwU-63" value="0,N" style="text;strokeColor=none;align=center;fillColor=none;html=1;verticalAlign=middle;whiteSpace=wrap;rounded=0;fontColor=#000000;" vertex="1" parent="1">
          <mxGeometry x="430" y="185" width="60" height="30" as="geometry" />
        </mxCell>
        <mxCell id="DTD4BTRLAoghBiSOBNwU-64" value="1,N" style="text;strokeColor=none;align=center;fillColor=none;html=1;verticalAlign=middle;whiteSpace=wrap;rounded=0;fontColor=#000000;" vertex="1" parent="1">
          <mxGeometry x="500" y="185" width="60" height="30" as="geometry" />
        </mxCell>
        <mxCell id="DTD4BTRLAoghBiSOBNwU-65" value="1,N" style="text;strokeColor=none;align=center;fillColor=none;html=1;verticalAlign=middle;whiteSpace=wrap;rounded=0;fontColor=#000000;" vertex="1" parent="1">
          <mxGeometry x="425" y="290" width="60" height="30" as="geometry" />
        </mxCell>
      </root>
    </mxGraphModel>
  </diagram>
</mxfile>
